<svg width="87" height="85" viewBox="0 0 87 85" fill="none" xmlns="http://www.w3.org/2000/svg">
<path d="M43.1406 50.7085L56.1217 62.1384C59.8508 65.4218 61.9999 70.2209 61.9999 75.272V82.9996" stroke="#E3E3E3" stroke-width="3" stroke-linecap="round" stroke-linejoin="round"/>
<path d="M21.2112 50.7085L7.99552 62.1312C4.19399 65.4147 2 70.2635 2 75.3679V82.9996" stroke="#E3E3E3" stroke-width="3" stroke-linecap="round" stroke-linejoin="round"/>
<path d="M49.8983 33.6367C49.8983 45.6416 41.9675 55.3747 32.1808 55.3747C22.3942 55.3747 14.4634 45.6416 14.4634 33.6367" stroke="#E3E3E3" stroke-width="3" stroke-linecap="round" stroke-linejoin="round"/>
<path d="M11.6797 27.4997V27.2796C11.6797 25.9272 12.7456 24.8303 14.06 24.8303H17.9339C23.6052 24.8303 28.0035 19.733 27.3343 13.94L26.4443 6.25149C26.2442 4.52281 27.5585 3 29.2488 3H34.7476C36.4414 3 37.7522 4.52281 37.5522 6.25149L36.6622 13.94C35.9929 19.7366 40.3912 24.8303 46.0625 24.8303H49.9365C51.2508 24.8303 52.3167 25.9272 52.3167 27.2796V30.563H11.6797V27.5032V27.4997Z" stroke="#E3E3E3" stroke-width="3" stroke-linecap="round" stroke-linejoin="round"/>
<path d="M49.9395 24.8299V18.9908C49.9395 11.9518 44.3959 6.24756 37.5552 6.24756" stroke="#E3E3E3" stroke-width="3" stroke-linecap="round" stroke-linejoin="round"/>
<path d="M14.1079 24.8299V18.9908C14.1079 11.9518 19.6515 6.24756 26.4922 6.24756" stroke="#E3E3E3" stroke-width="3" stroke-linecap="round" stroke-linejoin="round"/>
<path d="M51.2127 57.8135C51.2127 57.8135 43.7441 62.6729 43.7441 82.9982" stroke="#E3E3E3" stroke-width="3" stroke-linecap="round" stroke-linejoin="round"/>
<path d="M12.832 57.8135C12.832 57.8135 20.3006 62.6729 20.3006 82.9982" stroke="#E3E3E3" stroke-width="3" stroke-linecap="round" stroke-linejoin="round"/>
</svg>
