<svg width="85" height="85" viewBox="0 0 85 85" fill="none" xmlns="http://www.w3.org/2000/svg">
<path d="M37.8529 7.47618H56.8271V32.6729M42.2049 73.4071H3V7.47618H20.6509M16.2956 20.9814H41.9194M16.5814 26.9531H42.2052M67.8437 57.6809H73.8522M51.3568 57.6809H57.3652M54.3626 54.9978V60.3633M52.235 70.3042L56.4865 74.0951M56.4865 70.3042L52.235 74.0951M67.1986 72.1332H73.207M46.7676 64.6334H78.4406M62.7767 50.4995V78.7661M20.6471 4.04533V11.9447C20.6471 12.6923 21.3254 13.2977 22.1631 13.2977H22.771C23.5309 13.2977 24.1758 12.7949 24.2722 12.12L24.2982 11.9513C24.6429 9.59605 26.8928 7.83292 29.5541 7.83292C32.2192 7.83292 34.4691 9.59605 34.8138 11.9513L34.8361 12.12C34.9362 12.7915 35.5774 13.2977 36.3373 13.2977C37.175 13.2977 37.8533 12.6923 37.8533 11.9447V4.04533C37.8533 3.46974 37.3306 3 36.682 3H21.8184C21.1735 3 20.6471 3.46643 20.6471 4.04533ZM46.2305 32.6727H78.9747C81.1979 32.6727 83.0001 34.2811 83.0001 36.2651V79.4076C83.0001 81.3916 81.1979 83 78.9747 83H46.2305C44.0073 83 42.2051 81.3916 42.2051 79.4076V36.2651C42.2051 34.2811 44.0073 32.6727 46.2305 32.6727ZM47.9316 37.7833H77.2807V45.3122H47.9316V37.7833ZM70.4087 69.7114C70.3271 69.7842 70.1974 69.7842 70.1158 69.7114C70.0343 69.6386 70.0343 69.5228 70.1158 69.45C70.1974 69.3773 70.3271 69.3773 70.4087 69.45C70.4902 69.5228 70.4902 69.6386 70.4087 69.7114ZM70.4087 74.9975C70.3271 75.0703 70.1974 75.0703 70.1158 74.9975C70.0343 74.9247 70.0343 74.8089 70.1158 74.7362C70.1974 74.6634 70.3271 74.6634 70.4087 74.7362C70.4902 74.8089 70.4902 74.9247 70.4087 74.9975Z" stroke="#E3E3E3" stroke-width="2.5" stroke-miterlimit="10" stroke-linecap="round"/>
</svg>
