<svg width="87" height="85" viewBox="0 0 87 85" fill="none" xmlns="http://www.w3.org/2000/svg">
<path d="M81.9999 71.2736V72.5236H83.2499V71.2736H81.9999ZM61.688 71.2736H60.438V72.5236H61.688V71.2736ZM61.688 60.9696V59.7196H60.438V60.9696H61.688ZM81.9999 60.9696H83.2499V59.7196H81.9999V60.9696ZM61.7138 72.524C62.4042 72.524 62.9638 71.9643 62.9638 71.274C62.9638 70.5836 62.4042 70.024 61.7138 70.024V72.524ZM41.4048 71.274H40.1548V72.524H41.4048V71.274ZM41.4048 60.9699V59.7199H40.1548V60.9699H41.4048ZM61.7138 62.2199C62.4042 62.2199 62.9638 61.6603 62.9638 60.9699C62.9638 60.2796 62.4042 59.7199 61.7138 59.7199V62.2199ZM50.3093 60.9699C50.3093 61.6602 50.869 62.2199 51.5593 62.2199C52.2497 62.2199 52.8093 61.6602 52.8093 60.9699H50.3093ZM51.5593 50.6688V49.4188H50.3093V50.6688H51.5593ZM71.8712 50.6688H73.1212V49.4188H71.8712V50.6688ZM70.6212 60.9699C70.6212 61.6602 71.1808 62.2199 71.8712 62.2199C72.5616 62.2199 73.1212 61.6602 73.1212 60.9699H70.6212ZM37.8168 67.8803C38.5072 67.8803 39.0668 67.3206 39.0668 66.6303C39.0668 65.9399 38.5072 65.3803 37.8168 65.3803V67.8803ZM5.182 38.8318C5.182 38.1415 4.62235 37.5818 3.932 37.5818C3.24164 37.5818 2.682 38.1415 2.682 38.8318H5.182ZM62.9524 38.8349C62.9524 38.1446 62.3927 37.5849 61.7024 37.5849C61.012 37.5849 60.4524 38.1446 60.4524 38.8349H62.9524ZM60.4524 47.4341C60.4524 48.1244 61.012 48.6841 61.7024 48.6841C62.3927 48.6841 62.9524 48.1244 62.9524 47.4341H60.4524ZM29.2101 42.3932C29.9003 42.4069 30.4709 41.8585 30.4847 41.1683C30.4984 40.4781 29.95 39.9074 29.2598 39.8937L29.2101 42.3932ZM2.90563 38.6623L2.69574 39.8946L2.69671 39.8947L2.90563 38.6623ZM62.7345 38.6623L62.9434 39.8948L62.9444 39.8946L62.7345 38.6623ZM36.377 39.8937C35.6868 39.9077 35.1386 40.4785 35.1526 41.1687C35.1665 41.8589 35.7374 42.4072 36.4276 42.3932L36.377 39.8937ZM29.2349 47.1729C28.5446 47.1729 27.9849 47.7326 27.9849 48.4229C27.9849 49.1133 28.5446 49.6729 29.2349 49.6729V47.1729ZM36.3995 49.6729C37.0898 49.6729 37.6495 49.1133 37.6495 48.4229C37.6495 47.7326 37.0898 47.1729 36.3995 47.1729V49.6729ZM45.0021 20.9293C45.0021 21.6196 45.5617 22.1793 46.2521 22.1793C46.9424 22.1793 47.5021 21.6196 47.5021 20.9293H45.0021ZM18.1323 20.9293C18.1323 21.6196 18.6919 22.1793 19.3823 22.1793C20.0726 22.1793 20.6323 21.6196 20.6323 20.9293H18.1323ZM81.9999 70.0236H61.688V72.5236H81.9999V70.0236ZM62.938 71.2736V60.9696H60.438V71.2736H62.938ZM61.688 62.2196H81.9999V59.7196H61.688V62.2196ZM80.7499 60.9696V71.2736H83.2499V60.9696H80.7499ZM61.7138 70.024H41.4048V72.524H61.7138V70.024ZM42.6548 71.274V60.9699H40.1548V71.274H42.6548ZM41.4048 62.2199H61.7138V59.7199H41.4048V62.2199ZM52.8093 60.9699V50.6688H50.3093V60.9699H52.8093ZM51.5593 51.9188H71.8712V49.4188H51.5593V51.9188ZM70.6212 50.6688V60.9699H73.1212V50.6688H70.6212ZM37.8168 65.3803H7.4165V67.8803H37.8168V65.3803ZM7.4165 65.3803C6.18348 65.3803 5.182 64.3788 5.182 63.1458H2.682C2.682 65.7595 4.80277 67.8803 7.4165 67.8803V65.3803ZM5.182 63.1458V38.8318H2.682V63.1458H5.182ZM60.4524 38.8349V47.4341H62.9524V38.8349H60.4524ZM29.2598 39.8937C20.5096 39.7196 11.7708 38.8974 3.11456 37.4299L2.69671 39.8947C11.4746 41.3828 20.3365 42.2166 29.2101 42.3932L29.2598 39.8937ZM3.11552 37.4301C3.19544 37.4437 3.25 37.5121 3.25 37.5871H0.75C0.75 38.7258 1.56932 39.7027 2.69574 39.8946L3.11552 37.4301ZM3.25 37.5871V23.3673H0.75V37.5871H3.25ZM3.25 23.3673C3.25 22.7102 3.78189 22.1793 4.438 22.1793V19.6793C2.4031 19.6793 0.75 21.3276 0.75 23.3673H3.25ZM4.438 22.1793H61.2021V19.6793H4.438V22.1793ZM61.2021 22.1793C61.8573 22.1793 62.3901 22.7122 62.3901 23.3673H64.8901C64.8901 21.3314 63.2379 19.6793 61.2021 19.6793V22.1793ZM62.3901 23.3673V37.5871H64.8901V23.3673H62.3901ZM62.3901 37.5871C62.3901 37.5121 62.4447 37.4437 62.5246 37.4301L62.9444 39.8946C64.0708 39.7027 64.8901 38.7258 64.8901 37.5871H62.3901ZM62.5256 37.4299C53.8668 38.8973 45.1277 39.7167 36.377 39.8937L36.4276 42.3932C45.3006 42.2137 54.1624 41.3829 62.9434 39.8948L62.5256 37.4299ZM30.8277 38.8428H34.8067V36.3428H30.8277V38.8428ZM34.8067 38.8428C34.9961 38.8428 35.1495 38.9962 35.1495 39.1856H37.6495C37.6495 37.6155 36.3768 36.3428 34.8067 36.3428V38.8428ZM35.1495 39.1856V43.1703H37.6495V39.1856H35.1495ZM35.1495 43.1703C35.1495 43.3597 34.9961 43.5131 34.8067 43.5131V46.0131C36.3768 46.0131 37.6495 44.7405 37.6495 43.1703H35.1495ZM34.8067 43.5131H30.8277V46.0131H34.8067V43.5131ZM30.8277 43.5131C30.6383 43.5131 30.4849 43.3597 30.4849 43.1703H27.9849C27.9849 44.7405 29.2576 46.0131 30.8277 46.0131V43.5131ZM30.4849 43.1703V39.1856H27.9849V43.1703H30.4849ZM30.4849 39.1856C30.4849 38.9962 30.6383 38.8428 30.8277 38.8428V36.3428C29.2576 36.3428 27.9849 37.6155 27.9849 39.1856H30.4849ZM29.2349 49.6729H36.3995V47.1729H29.2349V49.6729ZM47.5021 20.9293V15.8578H45.0021V20.9293H47.5021ZM47.5021 15.8578C47.5021 13.5907 45.6676 11.75 43.3972 11.75V14.25C44.2836 14.25 45.0021 14.9681 45.0021 15.8578H47.5021ZM43.3972 11.75H22.2372V14.25H43.3972V11.75ZM22.2372 11.75C19.9705 11.75 18.1323 13.5898 18.1323 15.8578H20.6323C20.6323 14.9689 21.3528 14.25 22.2372 14.25V11.75ZM18.1323 15.8578V20.9293H20.6323V15.8578H18.1323Z" fill="#E3E3E3"/>
</svg>
