<svg width="87" height="85" viewBox="0 0 87 85" fill="none" xmlns="http://www.w3.org/2000/svg">
<path d="M42.6901 28.4438V76.4294M22.156 76.4294V28.4438M37.222 40.5521L32.4231 35.7532L27.6242 40.5521M37.2221 50.1498L32.4232 45.3509L27.6242 50.1498M37.2221 59.7479L32.4232 54.9489L27.6242 59.7479M37.2221 69.3489L32.4232 64.55L27.6242 69.3489M65.1173 28.4438V43.4439C67.3399 43.4439 69.143 45.2469 69.143 47.4695C69.143 49.6922 67.3399 51.4952 65.1173 51.4952C62.8947 51.4952 61.0916 49.6922 61.0916 47.4695M42.6901 20.871V13.326L32.4231 3L22.156 13.326V20.871M22.3884 76.4293H42.4612C45.5438 76.4293 48.0472 78.9327 48.0472 82.0153V83H16.8058V82.0153C16.8058 78.9327 19.3093 76.4293 22.3918 76.4293H22.3884ZM72.5445 28.4439L65.1173 21.0306H2V33.2116H14.181V28.4439H72.5445Z" stroke="#E3E3E3" stroke-width="2.5" stroke-miterlimit="10" stroke-linecap="round"/>
</svg>
