<svg width="87" height="85" viewBox="0 0 87 85" fill="none" xmlns="http://www.w3.org/2000/svg">
<path d="M54.3725 33.2835C54.3725 33.9738 54.9322 34.5335 55.6225 34.5335C56.3129 34.5335 56.8725 33.9738 56.8725 33.2835H54.3725ZM55.6225 3H56.8725V1.75H55.6225V3ZM9.92807 10.9281V12.1781H11.1781V10.9281H9.92807ZM2 67.618H0.75V68.868H2V67.618ZM31.9641 68.868C32.6545 68.868 33.2141 68.3083 33.2141 67.618C33.2141 66.9276 32.6545 66.368 31.9641 66.368V68.868ZM20.7155 27.923C20.7155 27.2326 20.1559 26.673 19.4655 26.673C18.7752 26.673 18.2155 27.2326 18.2155 27.923H20.7155ZM22.6845 24.704L22.2967 25.8924L22.2971 25.8925L22.6845 24.704ZM24.6534 21.4851C24.6534 22.1754 25.2131 22.7351 25.9034 22.7351C26.5938 22.7351 27.1534 22.1754 27.1534 21.4851H24.6534ZM23.9345 15.7343C23.9345 15.0439 23.3748 14.4843 22.6845 14.4843C21.9941 14.4843 21.4345 15.0439 21.4345 15.7343H23.9345ZM21.4345 18.2889C21.4345 18.9792 21.9941 19.5389 22.6845 19.5389C23.3748 19.5389 23.9345 18.9792 23.9345 18.2889H21.4345ZM23.9345 31.1388C23.9345 30.4485 23.3748 29.8888 22.6845 29.8888C21.9941 29.8888 21.4345 30.4485 21.4345 31.1388H23.9345ZM21.4345 33.6966C21.4345 34.387 21.9941 34.9466 22.6845 34.9466C23.3748 34.9466 23.9345 34.387 23.9345 33.6966H21.4345ZM45.1067 32.369C45.7046 32.0238 45.9095 31.2594 45.5643 30.6615C45.2192 30.0636 44.4547 29.8587 43.8568 30.2039L45.1067 32.369ZM16.4013 47.4974L15.7763 46.4148C15.3896 46.6381 15.1513 47.0507 15.1513 47.4973C15.1513 47.9438 15.3895 48.3565 15.7762 48.5798L16.4013 47.4974ZM29.8164 56.6886C30.4142 57.0338 31.1787 56.8291 31.524 56.2313C31.8692 55.6334 31.6645 54.8689 31.0667 54.5237L29.8164 56.6886ZM23.3098 42.7899C22.7121 42.4445 21.9475 42.649 21.6021 43.2468C21.2567 43.8445 21.4613 44.6091 22.059 44.9545L23.3098 42.7899ZM28.6066 48.7379C29.2043 49.0833 29.9689 48.8787 30.3143 48.281C30.6597 47.6832 30.4551 46.9187 29.8574 46.5733L28.6066 48.7379ZM29.589 39.1641C28.9911 38.819 28.2267 39.024 27.8816 39.622C27.5366 40.2199 27.7416 40.9844 28.3395 41.3294L29.589 39.1641ZM34.8903 45.1096C35.4883 45.4546 36.2527 45.2496 36.5978 44.6517C36.9428 44.0537 36.7378 43.2893 36.1399 42.9442L34.8903 45.1096ZM35.8693 35.5357C35.2715 35.1904 34.507 35.3952 34.1617 35.993C33.8164 36.5908 34.0212 37.3553 34.619 37.7006L35.8693 35.5357ZM41.1698 41.484C41.7676 41.8293 42.5321 41.6245 42.8774 41.0267C43.2227 40.4289 43.0179 39.6644 42.4201 39.3191L41.1698 41.484ZM36.0411 61.0248L35.4159 59.9424C35.0293 60.1657 34.7911 60.5783 34.7911 61.0248H36.0411ZM45.9818 55.2836L46.5997 54.197C46.2139 53.9776 45.7409 53.9792 45.3567 54.2012L45.9818 55.2836ZM64.4409 65.7791H65.6909C65.6909 65.3296 65.4495 64.9147 65.0587 64.6925L64.4409 65.7791ZM64.4409 77.2588L65.066 78.3412C65.0706 78.3386 65.0751 78.3359 65.0796 78.3332L64.4409 77.2588ZM54.5001 83L53.8823 84.0866C54.268 84.3059 54.7411 84.3044 55.1253 84.0824L54.5001 83ZM36.0411 72.5045H34.7911C34.7911 72.954 35.0325 73.3689 35.4232 73.5911L36.0411 72.5045ZM53.2501 79.1457C53.2501 79.836 53.8098 80.3957 54.5001 80.3957C55.1905 80.3957 55.7501 79.836 55.7501 79.1457H53.2501ZM45.6915 43.6785L45.0663 42.596C44.6797 42.8194 44.4415 43.232 44.4415 43.6785H45.6915ZM55.6322 37.9372L56.25 36.8505C55.8643 36.6313 55.3913 36.6329 55.0071 36.8548L55.6322 37.9372ZM74.0945 48.4327L75.3445 48.4327C75.3445 47.9832 75.1031 47.5682 74.7123 47.3461L74.0945 48.4327ZM63.5257 64.57C62.9278 64.915 62.7228 65.6795 63.0678 66.2774C63.4128 66.8754 64.1773 67.0804 64.7752 66.7354L63.5257 64.57ZM74.0944 59.9147L74.7192 60.9973C75.1061 60.7741 75.3444 60.3614 75.3444 59.9147L74.0944 59.9147ZM62.9006 61.7991C62.9006 62.4894 63.4602 63.0491 64.1506 63.0491C64.8409 63.0491 65.4006 62.4894 65.4006 61.7991L62.9006 61.7991ZM44.4415 55.1579C44.4415 55.8483 45.0012 56.4079 45.6915 56.4079C46.3819 56.4079 46.9415 55.8483 46.9415 55.1579L44.4415 55.1579ZM75.3446 60.0373C75.3446 59.3469 74.7849 58.7873 74.0946 58.7873C73.4042 58.7873 72.8446 59.3469 72.8446 60.0373H75.3446ZM74.0946 71.5197L74.7333 72.5942C75.1123 72.3689 75.3446 71.9606 75.3446 71.5197H74.0946ZM56.8725 33.2835V3H54.3725V33.2835H56.8725ZM55.6225 1.75H13.4438V4.25H55.6225V1.75ZM13.4438 1.75C10.8117 1.75 8.67807 3.88372 8.67807 6.51575H11.1781C11.1781 5.26438 12.1924 4.25 13.4438 4.25V1.75ZM8.67807 6.51575V10.9281H11.1781V6.51575H8.67807ZM9.92807 9.67809H5.5157V12.1781H9.92807V9.67809ZM5.5157 9.67809C2.88366 9.67809 0.75 11.8117 0.75 14.4438H3.25C3.25 13.1924 4.26434 12.1781 5.5157 12.1781V9.67809ZM0.75 14.4438V67.618H3.25V14.4438H0.75ZM2 68.868H31.9641V66.368H2V68.868ZM18.2155 27.923C18.2155 30.3906 20.2169 32.392 22.6845 32.392V29.892C21.5976 29.892 20.7155 29.0098 20.7155 27.923H18.2155ZM22.6845 32.392C25.152 32.392 27.1534 30.3906 27.1534 27.923H24.6534C24.6534 29.0098 23.7713 29.892 22.6845 29.892V32.392ZM27.1534 27.923C27.1534 26.6673 26.6634 25.6811 25.8377 24.9458C25.0721 24.264 24.0647 23.8392 23.0719 23.5156L22.2971 25.8925C23.204 26.1881 23.8062 26.4843 24.1751 26.8128C24.4839 27.0879 24.6534 27.4015 24.6534 27.923H27.1534ZM23.0723 23.5157C22.2857 23.259 21.6665 22.9615 21.2592 22.609C20.8942 22.2931 20.7155 21.9543 20.7155 21.4851H18.2155C18.2155 22.7931 18.8013 23.788 19.6232 24.4993C20.4029 25.1742 21.3932 25.5975 22.2967 25.8924L23.0723 23.5157ZM20.7155 21.4851C20.7155 20.3982 21.5976 19.5161 22.6845 19.5161V17.0161C20.2169 17.0161 18.2155 19.0175 18.2155 21.4851H20.7155ZM22.6845 19.5161C23.7713 19.5161 24.6534 20.3982 24.6534 21.4851H27.1534C27.1534 19.0175 25.152 17.0161 22.6845 17.0161V19.5161ZM21.4345 15.7343V18.2889H23.9345V15.7343H21.4345ZM21.4345 31.1388V33.6966H23.9345V31.1388H21.4345ZM43.8568 30.2039L15.7763 46.4148L17.0263 48.5799L45.1067 32.369L43.8568 30.2039ZM15.7762 48.5798L29.8164 56.6886L31.0667 54.5237L17.0265 46.4149L15.7762 48.5798ZM22.059 44.9545L28.6066 48.7379L29.8574 46.5733L23.3098 42.7899L22.059 44.9545ZM28.3395 41.3294L34.8903 45.1096L36.1399 42.9442L29.589 39.1641L28.3395 41.3294ZM34.619 37.7006L41.1698 41.484L42.4201 39.3191L35.8693 35.5357L34.619 37.7006ZM36.6662 62.1073L46.607 56.366L45.3567 54.2012L35.4159 59.9424L36.6662 62.1073ZM45.364 56.3702L63.823 66.8657L65.0587 64.6925L46.5997 54.197L45.364 56.3702ZM63.8157 64.6967L53.875 70.4378L55.1253 72.6027L65.066 66.8615L63.8157 64.6967ZM63.1909 65.7791V77.2588H65.6909V65.7791H63.1909ZM63.8157 76.1763L53.875 81.9176L55.1253 84.0824L65.066 78.3412L63.8157 76.1763ZM55.118 81.9134L36.6589 71.4179L35.4232 73.5911L53.8823 84.0866L55.118 81.9134ZM37.2911 72.5045V61.0248H34.7911V72.5045H37.2911ZM35.4232 62.1115L53.8823 72.6069L55.118 70.4336L36.6589 59.9382L35.4232 62.1115ZM53.2501 71.5203V79.1457H55.7501V71.5203H53.2501ZM46.3167 44.7609L56.2574 39.0197L55.0071 36.8548L45.0663 42.596L46.3167 44.7609ZM55.0145 39.0239L73.4767 49.5194L74.7123 47.3461L56.25 36.8505L55.0145 39.0239ZM73.4695 47.3502L63.5255 53.0915L64.7756 55.2565L74.7195 49.5153L73.4695 47.3502ZM64.7752 66.7354L74.7192 60.9973L73.4697 58.832L63.5257 64.57L64.7752 66.7354ZM75.3444 59.9147L75.3445 48.4327L72.8445 48.4327L72.8444 59.9146L75.3444 59.9147ZM65.4006 61.7991L65.4005 54.174L62.9005 54.174L62.9006 61.7991L65.4006 61.7991ZM64.7684 53.0874L46.3093 42.5918L45.0737 44.7651L63.5327 55.2606L64.7684 53.0874ZM44.4415 43.6785L44.4415 55.1579L46.9415 55.1579L46.9415 43.6785L44.4415 43.6785ZM72.8446 60.0373V71.5197H75.3446V60.0373H72.8446ZM73.4558 70.4452L63.8021 76.1843L65.0796 78.3332L74.7333 72.5942L73.4558 70.4452Z" fill="#E3E3E3"/>
</svg>
